<svg width="33" height="33" viewBox="0 0 33 33" fill="none" xmlns="http://www.w3.org/2000/svg">
<rect x="0.5" y="0.5" width="32" height="32" rx="16" fill="#18589C" stroke="#164194"/>
<path d="M21.4561 15.4777L17.6898 11.7702C17.5877 11.6766 17.5059 11.5638 17.4491 11.4384C17.3924 11.313 17.3619 11.1776 17.3594 11.0403C17.3569 10.9031 17.3826 10.7667 17.4348 10.6394C17.4871 10.5121 17.5648 10.3965 17.6634 10.2994C17.762 10.2023 17.8795 10.1258 18.0088 10.0744C18.1381 10.023 18.2766 9.99774 18.4161 10.0002C18.5555 10.0026 18.693 10.0326 18.8204 10.0885C18.9478 10.1444 19.0625 10.2249 19.1575 10.3254L24.6963 15.7776C24.8908 15.9693 25 16.2291 25 16.5C25 16.7709 24.8908 17.0307 24.6963 17.2224L19.1575 22.6746C19.0625 22.7751 18.9478 22.8556 18.8204 22.9115C18.693 22.9674 18.5555 22.9974 18.4161 22.9998C18.2766 23.0023 18.1381 22.977 18.0088 22.9256C17.8795 22.8742 17.762 22.7977 17.6634 22.7006C17.5648 22.6035 17.4871 22.4879 17.4348 22.3606C17.3826 22.2333 17.3569 22.0969 17.3594 21.9597C17.3619 21.8224 17.3924 21.687 17.4491 21.5616C17.5059 21.4362 17.5877 21.3234 17.6898 21.2298L21.4561 17.5223L8.03851 17.5223C7.76308 17.5223 7.49893 17.4146 7.30417 17.2229C7.10941 17.0312 7 16.7711 7 16.5C7 16.2289 7.10941 15.9688 7.30417 15.7771C7.49893 15.5854 7.76308 15.4777 8.03851 15.4777L21.4561 15.4777Z" fill="white"/>
</svg>
