<svg width="147" height="147" viewBox="0 0 147 147" fill="none" xmlns="http://www.w3.org/2000/svg">
<circle cx="73.5" cy="73.5" r="70.5" stroke="white" stroke-width="6"/>
<path d="M77.9937 43.9936C79.0563 42.9313 80.4974 42.3345 82 42.3345C83.5026 42.3345 84.9437 42.9313 86.0063 43.9936L111.506 69.4936C112.569 70.5563 113.165 71.9973 113.165 73.4999C113.165 75.0025 112.569 76.4436 111.506 77.5063L86.0063 103.006C84.9376 104.038 83.5062 104.61 82.0204 104.597C80.5346 104.584 79.1134 103.988 78.0627 102.937C77.0121 101.887 76.4161 100.465 76.4032 98.9795C76.3903 97.4938 76.9614 96.0623 77.9937 94.9936L93.3333 79.1666H39.5C37.9971 79.1666 36.5558 78.5696 35.4931 77.5069C34.4304 76.4442 33.8333 75.0028 33.8333 73.4999C33.8333 71.997 34.4304 70.5557 35.4931 69.493C36.5558 68.4303 37.9971 67.8333 39.5 67.8333H93.3333L77.9937 52.0063C76.9313 50.9436 76.3346 49.5025 76.3346 47.9999C76.3346 46.4973 76.9313 45.0563 77.9937 43.9936Z" fill="white"/>
</svg>
