<svg width="27" height="27" viewBox="0 0 27 27" fill="none" xmlns="http://www.w3.org/2000/svg">
<path d="M26.9985 20.13V25.434C26.9987 25.8138 26.8548 26.1795 26.5959 26.4573C26.337 26.7351 25.9824 26.9044 25.6036 26.931C24.9486 26.977 24.4136 27 23.9987 27C10.7439 27 0 16.2555 0 3C0 2.586 0.0229987 2.051 0.0689962 1.395C0.0955783 1.01617 0.264857 0.661516 0.542675 0.402613C0.820493 0.14371 1.18617 -0.00017165 1.56591 3.84869e-07H6.86962C7.05567 -0.000188002 7.23514 0.0687886 7.37318 0.193531C7.51122 0.318273 7.59797 0.489874 7.61658 0.675C7.65058 1.019 7.68257 1.295 7.71257 1.503C8.01063 3.58339 8.6215 5.60676 9.52447 7.5045C9.66696 7.8045 9.57397 8.163 9.30398 8.355L6.06716 10.668C8.04662 15.2794 11.7214 18.9544 16.3326 20.934L18.6425 17.703C18.7365 17.5705 18.8742 17.4755 19.0315 17.4346C19.1887 17.3937 19.3553 17.4096 19.5019 17.4795C21.3993 18.3808 23.4221 18.9902 25.5016 19.287C25.7096 19.317 25.9846 19.349 26.3265 19.383C26.5114 19.402 26.6826 19.4889 26.807 19.6269C26.9315 19.7649 26.9987 19.9442 26.9985 20.13Z" fill="#4B6AA5"/>
</svg>
